<?xml version="1.0" encoding="utf-8"?>
<!-- Generator: Adobe Illustrator 25.4.1, SVG Export Plug-In . SVG Version: 6.00 Build 0)  -->
<svg version="1.1" id="Layer_1" xmlns="http://www.w3.org/2000/svg" xmlns:xlink="http://www.w3.org/1999/xlink" x="0px" y="0px"
	 viewBox="0 0 56 56" style="enable-background:new 0 0 197.3 56.5;" xml:space="preserve">
<style type="text/css">
	.st0{fill:#F97C28;}
	.st1{fill:#FF5300;}
	.st2{fill:#FFFFFF;}
</style>
<g>
	<circle class="st0" cx="9.6" cy="28.8" r="4.1"/>
	<circle class="st0" cx="15.7" cy="29.1" r="0.9"/>
	<circle class="st0" cx="48" cy="10" r="4.1"/>
	<circle class="st0" cx="44.3" cy="14.9" r="0.9"/>
	<circle class="st0" cx="49.2" cy="46.5" r="4.1"/>
	<circle class="st0" cx="45.3" cy="41.7" r="0.9"/>
	<circle class="st1" cx="33.4" cy="28.8" r="15.3"/>
	<path class="st2" d="M43.9,33.3L35.7,19c-0.5-0.9-1.4-1.3-2.3-1.3s-1.8,0.4-2.3,1.3l-8.2,14.3c-0.3,0.6-0.4,1.2-0.3,1.8
		c0.3,1.6,2.2,2.4,3.6,1.7l5.8-2.9c0.5-0.2,0.9-0.3,1.4-0.3c0.5,0,1,0.1,1.4,0.3l5.8,2.9c0.6,0.3,1.2,0.3,1.7,0.2
		c0.9-0.2,1.7-0.9,1.9-1.9c0.1-0.3,0.1-0.6,0-0.9S44.1,33.6,43.9,33.3z M33.4,30.2c-1.6,0-2.8-1.3-2.8-2.8s1.3-2.8,2.8-2.8
		c1.6,0,2.8,1.3,2.8,2.8S35,30.2,33.4,30.2z"/>
</g>
</svg>
